<?xml version="1.0" encoding="utf-8"?>
<!-- Generator: Adobe Illustrator 23.0.1, SVG Export Plug-In . SVG Version: 6.00 Build 0)  -->
<svg version="1.1"
	 id="NexT" xmlns:cc="http://creativecommons.org/ns#" xmlns:dc="http://purl.org/dc/elements/1.1/" xmlns:rdf="http://www.w3.org/1999/02/22-rdf-syntax-ns#" xmlns:svg="http://www.w3.org/2000/svg"
	 xmlns="http://www.w3.org/2000/svg" xmlns:xlink="http://www.w3.org/1999/xlink" x="0px" y="0px" viewBox="0 0 512 512"
	 style="enable-background:new 0 0 512 512;" xml:space="preserve">
<style type="text/css">
	.st0{fill:#26453D;}
	.st1{fill:#569986;}
	.st2{enable-background:new    ;}
	.st3{fill:#FFFFFF;}
</style>
<g>
	
		<rect x="114.8" y="44" transform="matrix(6.123234e-17 -1 1 6.123234e-17 -5.642950e-02 513.0565)" class="st0" width="283.5" height="425.2"/>
	<rect x="43.9" y="114.5" class="st1" width="283.5" height="283.5"/>
	<g class="st2">
		<path class="st3" d="M404.7,188.2c-13,0-24.6,4.1-39.2,33.1l-91.7,175.6c-1,2-8.2,1.7-8.5,0l-21.8-94.1l-48.8,94.1
			c-1.4,2-8.2,1.7-8.5,0l-43.3-184.5c-4.1-17.7-9.2-24.2-20.8-24.2c-1.4,0-1.4-4.1,0-4.1c9.2,0,20.8,1,30.3,1c15,0,25.2-1,33.8-1
			c1.7,0,1.7,4.1,0,4.1c-9.9,0-17.7,4.8-14,20.8l34.4,148l33.8-66.5l-18.1-78.1c-4.4-17.7-7.8-24.2-18.1-24.2c-1.4,0-1.4-4.1,0-4.1
			c8.5,0,18.8,1,27.6,1c11.3,0,18.4-1,24.9-1c2,0,2,4.1,0,4.1c-8.5,0-9.5,2-5.5,20.8l11.3,48.1l19.1-37.2
			c11.3-21.8,10.6-31.7-3.4-31.7c-1,0-1-4.1,0-4.1c7.2,0,12.6,1,23.5,1c10.2,0,15-1,24.9-1c1.4,0,1.4,4.1,0,4.1
			c-11.6,0-20.8,4.4-35.8,33.1L265.6,270l20.5,87.3L356,219.9c9.5-18.4,5.5-31.7-12.6-31.7c-1.4,0-1.4-4.1,0-4.1
			c9.9,0,17.7,1,32.7,1c11.6,0,17.7-1,28.6-1C406.4,184.1,406.4,188.2,404.7,188.2z"/>
	</g>
</g>
</svg>
